<mxfile host="65bd71144e">
    <diagram id="C5RBs43oDa-KdzZeNtuy" name="Page-1">
        <mxGraphModel dx="374" dy="418" grid="1" gridSize="10" guides="1" tooltips="1" connect="1" arrows="1" fold="1" page="1" pageScale="1" pageWidth="827" pageHeight="1169" math="0" shadow="0">
            <root>
                <mxCell id="WIyWlLk6GJQsqaUBKTNV-0"/>
                <mxCell id="WIyWlLk6GJQsqaUBKTNV-1" parent="WIyWlLk6GJQsqaUBKTNV-0"/>
                <mxCell id="WIyWlLk6GJQsqaUBKTNV-2" value="" style="rounded=0;html=1;jettySize=auto;orthogonalLoop=1;fontSize=11;endArrow=block;endFill=0;endSize=8;strokeWidth=1;shadow=0;labelBackgroundColor=none;edgeStyle=orthogonalEdgeStyle;" parent="WIyWlLk6GJQsqaUBKTNV-1" source="WIyWlLk6GJQsqaUBKTNV-3" target="WIyWlLk6GJQsqaUBKTNV-6" edge="1">
                    <mxGeometry relative="1" as="geometry"/>
                </mxCell>
                <mxCell id="WIyWlLk6GJQsqaUBKTNV-3" value="Land on Page" style="rounded=1;whiteSpace=wrap;html=1;fontSize=12;glass=0;strokeWidth=1;shadow=0;" parent="WIyWlLk6GJQsqaUBKTNV-1" vertex="1">
                    <mxGeometry x="220" y="80" width="120" height="40" as="geometry"/>
                </mxCell>
                <mxCell id="WIyWlLk6GJQsqaUBKTNV-5" value="undefined" style="edgeStyle=orthogonalEdgeStyle;rounded=0;html=1;jettySize=auto;orthogonalLoop=1;fontSize=11;endArrow=block;endFill=0;endSize=8;strokeWidth=1;shadow=0;labelBackgroundColor=none;" parent="WIyWlLk6GJQsqaUBKTNV-1" source="WIyWlLk6GJQsqaUBKTNV-6" target="WIyWlLk6GJQsqaUBKTNV-7" edge="1">
                    <mxGeometry y="10" relative="1" as="geometry">
                        <mxPoint as="offset"/>
                    </mxGeometry>
                </mxCell>
                <mxCell id="00GDgZchpNQXbJY3G_3g-14" value="&lt;div&gt;true&lt;/div&gt;" style="edgeStyle=orthogonalEdgeStyle;rounded=0;orthogonalLoop=1;jettySize=auto;html=1;exitX=0.5;exitY=1;exitDx=0;exitDy=0;entryX=0.5;entryY=0;entryDx=0;entryDy=0;" parent="WIyWlLk6GJQsqaUBKTNV-1" source="WIyWlLk6GJQsqaUBKTNV-6" target="00GDgZchpNQXbJY3G_3g-10" edge="1">
                    <mxGeometry x="-0.2" y="20" relative="1" as="geometry">
                        <mxPoint as="offset"/>
                    </mxGeometry>
                </mxCell>
                <mxCell id="WIyWlLk6GJQsqaUBKTNV-6" value="Session?" style="rhombus;whiteSpace=wrap;html=1;shadow=0;fontFamily=Helvetica;fontSize=12;align=center;strokeWidth=1;spacing=6;spacingTop=-4;" parent="WIyWlLk6GJQsqaUBKTNV-1" vertex="1">
                    <mxGeometry x="230" y="150" width="100" height="80" as="geometry"/>
                </mxCell>
                <mxCell id="4" value="" style="edgeStyle=none;html=1;" parent="WIyWlLk6GJQsqaUBKTNV-1" source="WIyWlLk6GJQsqaUBKTNV-7" target="3" edge="1">
                    <mxGeometry relative="1" as="geometry"/>
                </mxCell>
                <mxCell id="WIyWlLk6GJQsqaUBKTNV-7" value="Display new user workflow" style="rounded=1;whiteSpace=wrap;html=1;fontSize=12;glass=0;strokeWidth=1;shadow=0;" parent="WIyWlLk6GJQsqaUBKTNV-1" vertex="1">
                    <mxGeometry x="500" y="170" width="120" height="40" as="geometry"/>
                </mxCell>
                <mxCell id="00GDgZchpNQXbJY3G_3g-5" value="" style="edgeStyle=orthogonalEdgeStyle;rounded=0;orthogonalLoop=1;jettySize=auto;html=1;" parent="WIyWlLk6GJQsqaUBKTNV-1" source="00GDgZchpNQXbJY3G_3g-2" target="00GDgZchpNQXbJY3G_3g-4" edge="1">
                    <mxGeometry relative="1" as="geometry"/>
                </mxCell>
                <mxCell id="00GDgZchpNQXbJY3G_3g-2" value="Present generated seed" style="whiteSpace=wrap;html=1;rounded=1;glass=0;strokeWidth=1;shadow=0;" parent="WIyWlLk6GJQsqaUBKTNV-1" vertex="1">
                    <mxGeometry x="500" y="395" width="120" height="60" as="geometry"/>
                </mxCell>
                <mxCell id="00GDgZchpNQXbJY3G_3g-7" value="" style="edgeStyle=orthogonalEdgeStyle;rounded=0;orthogonalLoop=1;jettySize=auto;html=1;" parent="WIyWlLk6GJQsqaUBKTNV-1" source="00GDgZchpNQXbJY3G_3g-4" target="00GDgZchpNQXbJY3G_3g-6" edge="1">
                    <mxGeometry relative="1" as="geometry"/>
                </mxCell>
                <mxCell id="00GDgZchpNQXbJY3G_3g-4" value="Force user to copy seed" style="whiteSpace=wrap;html=1;rounded=1;glass=0;strokeWidth=1;shadow=0;" parent="WIyWlLk6GJQsqaUBKTNV-1" vertex="1">
                    <mxGeometry x="500" y="480" width="120" height="60" as="geometry"/>
                </mxCell>
                <mxCell id="00GDgZchpNQXbJY3G_3g-6" value="Force user to re-enter seed" style="whiteSpace=wrap;html=1;rounded=1;glass=0;strokeWidth=1;shadow=0;" parent="WIyWlLk6GJQsqaUBKTNV-1" vertex="1">
                    <mxGeometry x="500" y="560" width="120" height="60" as="geometry"/>
                </mxCell>
                <mxCell id="00GDgZchpNQXbJY3G_3g-8" value="Display dashboard page" style="whiteSpace=wrap;html=1;rounded=1;glass=0;strokeWidth=1;shadow=0;" parent="WIyWlLk6GJQsqaUBKTNV-1" vertex="1">
                    <mxGeometry x="380" y="880" width="120" height="60" as="geometry"/>
                </mxCell>
                <mxCell id="00GDgZchpNQXbJY3G_3g-18" value="" style="edgeStyle=orthogonalEdgeStyle;rounded=0;orthogonalLoop=1;jettySize=auto;html=1;" parent="WIyWlLk6GJQsqaUBKTNV-1" source="00GDgZchpNQXbJY3G_3g-10" target="00GDgZchpNQXbJY3G_3g-17" edge="1">
                    <mxGeometry relative="1" as="geometry"/>
                </mxCell>
                <mxCell id="00GDgZchpNQXbJY3G_3g-10" value="Enumerate the dropdown with session accounts" style="rounded=1;whiteSpace=wrap;html=1;shadow=0;strokeWidth=1;spacing=6;spacingTop=-4;" parent="WIyWlLk6GJQsqaUBKTNV-1" vertex="1">
                    <mxGeometry x="220" y="280" width="120" height="60" as="geometry"/>
                </mxCell>
                <mxCell id="00GDgZchpNQXbJY3G_3g-20" value="" style="edgeStyle=orthogonalEdgeStyle;rounded=0;orthogonalLoop=1;jettySize=auto;html=1;entryX=0.5;entryY=0;entryDx=0;entryDy=0;" parent="WIyWlLk6GJQsqaUBKTNV-1" source="00GDgZchpNQXbJY3G_3g-17" edge="1" target="10">
                    <mxGeometry relative="1" as="geometry">
                        <mxPoint x="440" y="680" as="targetPoint"/>
                    </mxGeometry>
                </mxCell>
                <mxCell id="00GDgZchpNQXbJY3G_3g-27" value="Yes" style="edgeLabel;html=1;align=center;verticalAlign=middle;resizable=0;points=[];" parent="00GDgZchpNQXbJY3G_3g-20" vertex="1" connectable="0">
                    <mxGeometry x="-0.5268" relative="1" as="geometry">
                        <mxPoint x="-38" as="offset"/>
                    </mxGeometry>
                </mxCell>
                <mxCell id="00GDgZchpNQXbJY3G_3g-22" value="" style="edgeStyle=orthogonalEdgeStyle;rounded=0;orthogonalLoop=1;jettySize=auto;html=1;" parent="WIyWlLk6GJQsqaUBKTNV-1" source="00GDgZchpNQXbJY3G_3g-17" target="00GDgZchpNQXbJY3G_3g-21" edge="1">
                    <mxGeometry relative="1" as="geometry"/>
                </mxCell>
                <mxCell id="15" value="No" style="edgeLabel;html=1;align=center;verticalAlign=middle;resizable=0;points=[];" vertex="1" connectable="0" parent="00GDgZchpNQXbJY3G_3g-22">
                    <mxGeometry x="-0.3156" y="1" relative="1" as="geometry">
                        <mxPoint as="offset"/>
                    </mxGeometry>
                </mxCell>
                <mxCell id="00GDgZchpNQXbJY3G_3g-17" value="&lt;div&gt;User selects existing&lt;br&gt;&lt;/div&gt;" style="rhombus;whiteSpace=wrap;html=1;rounded=0;shadow=0;strokeWidth=1;spacing=6;spacingTop=-4;" parent="WIyWlLk6GJQsqaUBKTNV-1" vertex="1">
                    <mxGeometry x="210" y="395" width="140" height="110" as="geometry"/>
                </mxCell>
                <mxCell id="00GDgZchpNQXbJY3G_3g-25" style="edgeStyle=orthogonalEdgeStyle;rounded=0;orthogonalLoop=1;jettySize=auto;html=1;exitX=1;exitY=0.5;exitDx=0;exitDy=0;entryX=0.364;entryY=0.136;entryDx=0;entryDy=0;entryPerimeter=0;" parent="WIyWlLk6GJQsqaUBKTNV-1" source="00GDgZchpNQXbJY3G_3g-21" edge="1" target="10">
                    <mxGeometry relative="1" as="geometry">
                        <mxPoint x="420" y="680" as="targetPoint"/>
                        <Array as="points">
                            <mxPoint x="421" y="610"/>
                        </Array>
                    </mxGeometry>
                </mxCell>
                <mxCell id="00GDgZchpNQXbJY3G_3g-21" value="Manually enter the account into the input" style="rounded=1;whiteSpace=wrap;html=1;shadow=0;strokeWidth=1;spacing=6;spacingTop=-4;" parent="WIyWlLk6GJQsqaUBKTNV-1" vertex="1">
                    <mxGeometry x="220" y="580" width="120" height="60" as="geometry"/>
                </mxCell>
                <mxCell id="00GDgZchpNQXbJY3G_3g-29" value="Login Page" style="text;html=1;strokeColor=none;fillColor=none;align=center;verticalAlign=middle;whiteSpace=wrap;rounded=0;fontSize=35;fontStyle=1" parent="WIyWlLk6GJQsqaUBKTNV-1" vertex="1">
                    <mxGeometry x="296" y="10" width="236" height="40" as="geometry"/>
                </mxCell>
                <mxCell id="5" style="edgeStyle=none;html=1;exitX=0;exitY=0.5;exitDx=0;exitDy=0;entryX=0;entryY=0.5;entryDx=0;entryDy=0;" parent="WIyWlLk6GJQsqaUBKTNV-1" source="3" target="00GDgZchpNQXbJY3G_3g-21" edge="1">
                    <mxGeometry relative="1" as="geometry">
                        <mxPoint x="160" y="610" as="targetPoint"/>
                        <Array as="points">
                            <mxPoint x="400" y="310"/>
                            <mxPoint x="400" y="360"/>
                            <mxPoint x="160" y="360"/>
                            <mxPoint x="160" y="610"/>
                        </Array>
                    </mxGeometry>
                </mxCell>
                <mxCell id="7" value="Existing Wallet" style="edgeLabel;html=1;align=center;verticalAlign=middle;resizable=0;points=[];" parent="5" vertex="1" connectable="0">
                    <mxGeometry x="-0.8944" y="1" relative="1" as="geometry">
                        <mxPoint x="-22" y="-1" as="offset"/>
                    </mxGeometry>
                </mxCell>
                <mxCell id="8" style="edgeStyle=none;html=1;exitX=0.5;exitY=1;exitDx=0;exitDy=0;entryX=0.5;entryY=0;entryDx=0;entryDy=0;" parent="WIyWlLk6GJQsqaUBKTNV-1" source="3" target="00GDgZchpNQXbJY3G_3g-2" edge="1">
                    <mxGeometry relative="1" as="geometry"/>
                </mxCell>
                <mxCell id="9" value="New" style="edgeLabel;html=1;align=center;verticalAlign=middle;resizable=0;points=[];" parent="8" vertex="1" connectable="0">
                    <mxGeometry x="-0.2" y="1" relative="1" as="geometry">
                        <mxPoint as="offset"/>
                    </mxGeometry>
                </mxCell>
                <mxCell id="3" value="User click button" style="rhombus;whiteSpace=wrap;html=1;rounded=0;glass=0;strokeWidth=1;shadow=0;" parent="WIyWlLk6GJQsqaUBKTNV-1" vertex="1">
                    <mxGeometry x="520" y="270" width="80" height="80" as="geometry"/>
                </mxCell>
                <mxCell id="13" value="" style="edgeStyle=none;rounded=0;html=1;" edge="1" parent="WIyWlLk6GJQsqaUBKTNV-1" source="10" target="00GDgZchpNQXbJY3G_3g-8">
                    <mxGeometry relative="1" as="geometry"/>
                </mxCell>
                <mxCell id="14" value="isValid" style="edgeLabel;html=1;align=center;verticalAlign=middle;resizable=0;points=[];" vertex="1" connectable="0" parent="13">
                    <mxGeometry x="-0.181" y="2" relative="1" as="geometry">
                        <mxPoint as="offset"/>
                    </mxGeometry>
                </mxCell>
                <mxCell id="10" value="&lt;div&gt;Validate address&lt;br&gt;&lt;/div&gt;" style="rhombus;whiteSpace=wrap;html=1;rounded=0;shadow=0;strokeWidth=1;spacing=6;spacingTop=-4;" vertex="1" parent="WIyWlLk6GJQsqaUBKTNV-1">
                    <mxGeometry x="370" y="700" width="140" height="110" as="geometry"/>
                </mxCell>
                <mxCell id="12" value="" style="endArrow=classic;html=1;exitX=-0.01;exitY=0.424;exitDx=0;exitDy=0;exitPerimeter=0;entryX=0.648;entryY=0.145;entryDx=0;entryDy=0;entryPerimeter=0;rounded=0;" edge="1" parent="WIyWlLk6GJQsqaUBKTNV-1" source="00GDgZchpNQXbJY3G_3g-6" target="10">
                    <mxGeometry width="50" height="50" relative="1" as="geometry">
                        <mxPoint x="410" y="670" as="sourcePoint"/>
                        <mxPoint x="460" y="680" as="targetPoint"/>
                        <Array as="points">
                            <mxPoint x="460" y="585"/>
                        </Array>
                    </mxGeometry>
                </mxCell>
            </root>
        </mxGraphModel>
    </diagram>
</mxfile>